<?xml version="1.0"?>
<svg xmlns="http://www.w3.org/2000/svg" xmlns:xlink="http://www.w3.org/1999/xlink" version="1.1" id="Capa_1" x="0px" y="0px" viewBox="0 0 512 512" style="enable-background:new 0 0 512 512;" xml:space="preserve" width="512px" height="512px" class=""><g><g>
	<g>
		<path d="M370.017,400.82c-3.33-3.543-8.92-3.738-12.475-0.43c-8.738,8.127-20.148,14.241-33.1,17.482    c-4.719,1.188-7.586,5.961-6.396,10.662c1.2,4.702,5.99,7.556,10.715,6.367c15.635-3.919,29.722-11.362,40.826-21.678    C373.142,409.912,373.343,404.363,370.017,400.82z" data-original="#000000" class="active-path" data-old_color="#000000" fill="#1190CB"/>
	</g>
</g><g>
	<g>
		<path d="M474.808,251.966h-18.666c-7.332-19.083-18.253-36.766-32.07-52.506l20.443-59.915c1.482-4.361-0.665-9.121-4.932-10.91    c-8.173-3.431-16.782-5.031-25.356-5.031c-21.09,0.048-41.768,9.538-58.021,25.068c-12.522-6.061-25.821-11.116-39.714-15.088    c8.226-13.346,13.057-28.981,13.069-45.781C329.551,39.308,290.036,0.006,241.295,0c-48.753,0.006-88.266,39.308-88.266,87.802    c0,17.518,5.208,33.788,14.099,47.487c-29.757,9.215-56.585,23.508-78.799,41.821c-14.729,12.128-27.44,26.045-37.666,41.321    c-7.85-0.124-14.805-2.801-19.583-6.779c-4.925-4.12-7.491-9.203-7.503-14.623c0-4.849-3.955-8.779-8.827-8.779    s-8.827,3.931-8.827,8.779c-0.012,11.268,5.579,21.302,13.852,28.116c5.843,4.837,13.093,8.215,21.072,9.821    c-11.646,22.402-18.171,47.158-18.159,73.209c-0.012,50.506,24.456,96.116,63.393,129.128l-8.768,35.265v-0.018    c-0.471,1.86-0.7,3.755-0.7,5.62c0.012,5.278,1.807,10.286,4.92,14.317c3.113,4.031,7.632,7.12,12.975,8.432l42.238,10.398    c1.872,0.465,3.772,0.683,5.632,0.683c5.308,0,10.345-1.794,14.388-4.89c4.049-3.09,7.161-7.579,8.479-12.887l3.136-12.646    c23.832,7.244,49.535,11.192,76.339,11.192s52.501-3.978,76.327-11.222l3.154,12.669c1.312,5.308,4.425,9.804,8.467,12.892    c4.042,3.101,9.08,4.89,14.394,4.89c1.86,0,3.755-0.218,5.631-0.683l42.238-10.398c5.343-1.312,9.85-4.407,12.958-8.432    c3.113-4.031,4.914-9.027,4.92-14.317c0-1.842-0.218-3.725-0.683-5.602l-8.804-35.395c25.35-21.549,44.592-48.264,54.89-78.357    h16.594c17.259-0.035,31.241-13.934,31.27-31.105v-44.645C506.043,265.906,492.061,251.996,474.808,251.966z M191.354,38.132    c12.81-12.722,30.399-20.566,49.935-20.572c19.513,0.006,37.119,7.85,49.918,20.572c12.798,12.74,20.684,30.252,20.696,49.671    c-0.012,19.425-7.897,36.925-20.696,49.664c-12.805,12.722-30.404,20.566-49.918,20.572c-19.537-0.006-37.131-7.85-49.935-20.572    c-12.793-12.74-20.678-30.246-20.678-49.664S178.562,50.877,191.354,38.132z M148.104,490.004    c-0.335,1.324-1.083,2.395-2.113,3.201c-1.048,0.8-2.33,1.248-3.619,1.241l-1.388-0.165l-42.238-10.398    c-1.347-0.335-2.424-1.071-3.23-2.101s-1.253-2.319-1.241-3.595l0.159-1.365l0.012-0.023l6.884-27.692    c15.182,10.686,32.076,19.695,50.306,26.692L148.104,490.004z M393.897,481.777c-0.806,1.042-1.872,1.777-3.213,2.101    l-42.227,10.398l-1.395,0.165c-1.294,0.006-2.583-0.441-3.625-1.236c-1.035-0.806-1.771-1.872-2.106-3.195l-3.531-14.217    c15.87-6.102,30.758-13.693,44.357-22.62c2.03-1.335,3.937-2.807,5.914-4.202l6.92,27.816l0.159,1.388    C395.156,479.459,394.704,480.742,393.897,481.777z M488.425,327.723c0,3.719-1.518,7.061-4.013,9.556    c-2.507,2.484-5.873,3.984-9.609,3.989h-23.02c-3.919,0-7.361,2.56-8.467,6.297c-10.71,36.166-35.983,68.048-70.872,90.956    c-34.883,22.891-79.299,36.696-127.728,36.689c-56.891,0.012-108.244-19.042-145.122-49.471    c-36.907-30.475-59.245-71.956-59.257-117.56c0.012-45.599,22.349-87.073,59.257-117.548    c21.973-18.13,49.136-32.135,79.499-40.555c5.649,5.572,12.069,10.368,19.054,14.275c-9.103,1.489-18.106,3.296-26.892,5.708    c-4.702,1.294-7.462,6.132-6.161,10.804c1.312,4.672,6.173,7.414,10.875,6.12c21.325-5.861,43.898-8.827,67.024-8.821    c21.702-0.006,43.88,2.601,65.988,7.862c4.743,1.13,9.504-1.777,10.639-6.496c1.136-4.719-1.783-9.451-6.531-10.586    c-9.227-2.195-18.483-3.825-27.716-5.155c7.155-4.12,13.67-9.18,19.384-15.058c17.5,4.39,34.065,10.486,49.188,18.33    c3.548,1.842,7.914,1.065,10.604-1.872c13.899-15.234,32.523-24.079,49.689-24.026c3.619,0,7.185,0.424,10.674,1.206    l-19.189,56.25c-1.042,3.048-0.33,6.409,1.872,8.774c15.441,16.647,27.086,35.66,34.047,56.155    c1.206,3.567,4.572,5.973,8.356,5.973h24.815c3.737,0.006,7.102,1.507,9.609,3.989c2.495,2.495,4.014,5.843,4.014,9.562    L488.425,327.723z" data-original="#000000" class="active-path" data-old_color="#000000" fill="#1190CB"/>
	</g>
</g><g>
	<g>
		<ellipse cx="381.783" cy="246.683" rx="12.346" ry="12.275" data-original="#000000" class="active-path" data-old_color="#000000" fill="#1190CB"/>
	</g>
</g><g>
	<g>
		<path d="M264.069,83.971c-4.537-3.307-9.439-5.037-14.128-6.414V56.915c1.595,0.583,2.925,1.23,3.801,1.918    c1.147,0.895,1.836,1.783,2.319,2.778c0.477,0.995,0.759,2.148,0.765,3.643c0,4.849,3.955,8.779,8.827,8.779    c4.866,0,8.827-3.931,8.827-8.779c0-3.842-0.794-7.703-2.501-11.215c-2.512-5.296-7.044-9.598-12.616-12.275    c-2.865-1.388-6.026-2.389-9.426-3.054v-0.665c0-4.849-3.955-8.779-8.827-8.779s-8.827,3.931-8.827,8.779v0.324    c-2.372,0.4-4.59,0.989-6.667,1.777c-6.191,2.319-10.904,6.402-13.775,10.992c-2.895,4.608-4.09,9.556-4.102,14.117    c-0.018,4.661,1.142,9.139,3.413,12.787c1.971,3.195,4.631,5.637,7.391,7.432c4.484,2.895,9.197,4.395,13.74,5.643v23.002    c-1.625-0.577-2.932-1.307-3.868-2.102c-2.03-1.789-2.954-3.689-3.019-6.667c0-4.849-3.948-8.779-8.827-8.779    c-4.861,0-8.827,3.931-8.827,8.779c-0.059,7.708,3.342,15.158,9.262,20.066c4.184,3.525,9.439,5.737,15.282,6.749v0.606    c0,4.849,3.955,8.779,8.827,8.779s8.827-3.931,8.827-8.779v-0.811c4.49-0.777,8.832-2.113,12.816-4.554    c3.443-2.131,6.549-5.196,8.627-9.045c2.095-3.842,3.107-8.32,3.095-13.011c0.012-4.872-1.065-9.451-3.207-13.298    C269.424,88.685,266.835,85.99,264.069,83.971z M232.288,72.72c-2.008-0.748-3.614-1.524-4.567-2.278    c-0.912-0.695-1.347-1.241-1.689-1.888c-0.33-0.653-0.624-1.553-0.635-3.296c0-1.971,0.759-4.431,2.548-6.219    c0.913-0.924,2.113-1.783,3.955-2.484c0.124-0.048,0.271-0.088,0.388-0.124V72.72z M255.848,110.014    c-0.4,0.736-0.888,1.324-1.63,1.924c-0.913,0.73-2.407,1.43-4.278,2.012V96.176h0.001c0.594,0.253,1.271,0.489,1.771,0.764    c1.995,1.06,3.119,2.083,3.824,3.136c0.688,1.083,1.259,2.424,1.289,5.272C256.813,107.667,256.377,109.032,255.848,110.014z" data-original="#000000" class="active-path" data-old_color="#000000" fill="#1190CB"/>
	</g>
</g></g> </svg>
