<?xml version="1.0"?>
<svg xmlns="http://www.w3.org/2000/svg" height="512px" viewBox="-12 0 512 512" width="512px" class=""><g><path d="m108.015625 448c-24.253906 0-44-19.734375-44-44s19.746094-44 44-44c24.257813 0 44 19.734375 44 44s-19.742187 44-44 44zm0-80c-19.847656 0-36 16.152344-36 36s16.152344 36 36 36 36-16.152344 36-36-16.152344-36-36-36zm0 0" fill="#263238" data-original="#263238"/><path d="m44 512c-2.207031 0-4-1.792969-4-4v-27.121094c0-9.390625 5.519531-17.96875 14.070312-21.847656l29.882813-13.558594-.007813-6.863281c0-2.210937 1.789063-4 4-4 2.207032 0 4 1.789063 4 4l.007813 9.4375c0 1.570313-.914063 3-2.34375 3.648437l-32.226563 14.632813c-5.703124 2.566406-9.382812 8.289063-9.382812 14.542969v27.121094c0 2.214843-1.792969 4.007812-4 4.007812zm0 0" fill="#263238" data-original="#263238"/><path d="m172 512c-2.207031 0-4-1.792969-4-4v-27.128906c0-6.253906-3.679688-11.976563-9.382812-14.566406l-32.328126-14.695313c-1.433593-.648437-2.34375-2.074219-2.34375-3.640625v-9.28125c0-2.207031 1.789063-4 4-4 2.207032 0 4 1.792969 4 4l.007813 6.695312 29.976563 13.640626c8.542968 3.886718 14.070312 12.464843 14.070312 21.847656v27.128906c0 2.207031-1.792969 4-4 4zm0 0" fill="#263238" data-original="#263238"/><path d="m236.015625 448c-24.253906 0-44-19.734375-44-44s19.746094-44 44-44c24.257813 0 44 19.734375 44 44s-19.742187 44-44 44zm0-80c-19.847656 0-36 16.152344-36 36s16.152344 36 36 36 36-16.152344 36-36-16.152344-36-36-36zm0 0" fill="#263238" data-original="#263238"/><path d="m172 512c-2.207031 0-4-1.792969-4-4v-27.121094c0-9.390625 5.519531-17.96875 14.070312-21.847656l29.875-13.558594-.007812-6.863281c0-2.210937 1.789062-4 4-4 2.207031 0 4 1.789063 4 4l.007812 9.4375c0 1.570313-.914062 3-2.34375 3.648437l-32.21875 14.632813c-5.703124 2.59375-9.382812 8.3125-9.382812 14.566406v27.121094c0 2.191406-1.792969 3.984375-4 3.984375zm0 0" fill="#263238" data-original="#263238"/><path d="m299.992188 512c-2.207032 0-4-1.792969-4-4v-27.128906c0-6.253906-3.679688-11.976563-9.375-14.566406l-32.328126-14.695313c-1.433593-.648437-2.34375-2.074219-2.34375-3.640625l-.007812-9.28125c0-2.207031 1.789062-4 4-4 2.207031 0 4 1.792969 4 4l.007812 6.695312 29.984376 13.640626c8.535156 3.878906 14.0625 12.457031 14.0625 21.847656v27.128906c0 2.207031-1.792969 4-4 4zm0 0" fill="#263238" data-original="#263238"/><path d="m364.015625 448c-24.253906 0-44-19.734375-44-44s19.746094-44 44-44c24.257813 0 44 19.734375 44 44s-19.742187 44-44 44zm0-80c-19.847656 0-36 16.152344-36 36s16.152344 36 36 36 36-16.152344 36-36-16.152344-36-36-36zm0 0" fill="#263238" data-original="#263238"/><path d="m299.992188 512c-2.207032 0-4-1.792969-4-4v-27.121094c0-9.382812 5.519531-17.96875 14.078124-21.847656l29.875-13.558594-.007812-6.863281c0-2.210937 1.789062-4 4-4 2.207031 0 4 1.789063 4 4l.007812 9.4375c0 1.570313-.914062 3-2.34375 3.648437l-32.21875 14.632813c-5.703124 2.59375-9.390624 8.3125-9.390624 14.566406v27.121094c0 2.191406-1.792969 3.984375-4 3.984375zm0 0" fill="#263238" data-original="#263238"/><path d="m427.992188 512c-2.207032 0-4-1.792969-4-4v-27.128906c0-6.253906-3.679688-11.976563-9.375-14.566406l-32.328126-14.695313c-1.433593-.648437-2.34375-2.074219-2.34375-3.640625l-.007812-9.28125c0-2.207031 1.789062-4 4-4 2.207031 0 4 1.792969 4 4l.007812 6.695312 29.984376 13.640626c8.535156 3.878906 14.0625 12.457031 14.0625 21.847656v27.128906c0 2.207031-1.792969 4-4 4zm0 0" fill="#263238" data-original="#263238"/><path d="m235.992188 4h-112c-4.417969 0-8 3.585938-8 8v72c0 4.414062 3.582031 8 8 8h20v22.921875c0 6.78125 7.910156 10.484375 13.121093 6.140625l34.878907-29.0625h44c4.414062 0 8-3.585938 8-8v-72c0-4.425781-3.578126-8-8-8zm0 0" fill="#40c4ff" data-original="#40C4FF" class="active-path" style="fill:#1190CB" data-old_color="#40C4FF"/><path d="m152.023438 126.9375c-1.726563 0-3.472657-.378906-5.121094-1.152344-4.261719-2-6.910156-6.160156-6.910156-10.863281v-18.921875h-16c-6.617188 0-12-5.382812-12-12v-72c0-6.617188 5.382812-12 12-12h112c6.617187 0 12 5.382812 12 12v72c0 6.617188-5.382813 12-12 12h-42.550782l-33.761718 28.144531c-2.214844 1.839844-4.910157 2.792969-7.65625 2.792969zm-28.03125-118.9375c-2.199219 0-4 1.792969-4 4v72c0 2.207031 1.800781 4 4 4h20c2.207031 0 4 1.792969 4 4v22.921875c0 2.359375 1.769531 3.367187 2.304687 3.621094.535156.265625 2.445313.96875 4.253906-.550781l34.875-29.0625c.71875-.601563 1.621094-.929688 2.558594-.929688h44c2.199219 0 4-1.792969 4-4v-72c0-2.207031-1.800781-4-4-4zm0 0" fill="#263238" data-original="#263238"/><path d="m403.992188 256h-80c-2.207032 0-4-1.792969-4-4s1.792968-4 4-4h80c2.207031 0 4 1.792969 4 4s-1.792969 4-4 4zm0 0" fill="#263238" data-original="#263238"/><path d="m379.992188 276h-56c-2.207032 0-4-1.792969-4-4s1.792968-4 4-4h56c2.207031 0 4 1.792969 4 4s-1.792969 4-4 4zm0 0" fill="#263238" data-original="#263238"/><path d="m379.992188 236h-56c-2.207032 0-4-1.792969-4-4s1.792968-4 4-4h56c2.207031 0 4 1.792969 4 4s-1.792969 4-4 4zm0 0" fill="#263238" data-original="#263238"/><path d="m84.039062 208c-28.671874 0-52-23.328125-52-52s23.328126-52 52-52c28.671876 0 52 23.328125 52 52s-23.328124 52-52 52zm0-96c-24.253906 0-44 19.734375-44 44s19.746094 44 44 44c24.257813 0 44-19.734375 44-44s-19.742187-44-44-44zm0 0" fill="#263238" data-original="#263238"/><path d="m117.320312 128.238281 3.574219-2.972656c-8.804687-10.554687-22.039062-17.273437-36.855469-17.273437-26.511718 0-48 21.488281-48 48h4.527344c28.042969 0 55.195313-9.816407 76.753906-27.753907zm0 0" fill="#ffd740" data-original="#FFD740"/><g fill="#263238"><path d="m40.566406 160h-4.527344c-2.207031 0-4-1.792969-4-4 0-28.671875 23.328126-52 52-52 15.457032 0 30.007813 6.816406 39.929688 18.703125.679688.816406 1.007812 1.863281.910156 2.929687-.09375 1.0625-.605468 2.03125-1.429687 2.710938l-3.578125 2.976562c-22.222656 18.496094-50.382813 28.679688-79.304688 28.679688zm-.351562-8h.351562c27.050782 0 53.402344-9.527344 74.195313-26.832031l.359375-.304688c-8.226563-8.214843-19.34375-12.863281-31.082032-12.863281-22.910156 0-41.800781 17.601562-43.824218 40zm0 0" data-original="#000000"/><path d="m4 340c-2.207031 0-4-1.792969-4-4v-71.304688c0-16.757812 9.304688-31.832031 24.289062-39.335937l33.886719-16.984375c1.953125-.976562 4.375-.183594 5.367188 1.785156.984375 1.976563.183593 4.375-1.789063 5.367188l-33.890625 16.976562c-12.246093 6.152344-19.863281 18.480469-19.863281 32.191406v71.304688c0 2.207031-1.792969 4-4 4zm0 0" data-original="#000000"/><path d="m36.039062 340c-2.207031 0-4-1.792969-4-4v-52c0-2.207031 1.792969-4 4-4 2.207032 0 4 1.792969 4 4v52c0 2.207031-1.792968 4-4 4zm0 0" data-original="#000000"/><path d="m83.960938 251.960938c-1.335938 0-2.585938-.664063-3.328126-1.785157l-23.992187-36c-.441406-.65625-.671875-1.421875-.671875-2.214843l-.015625-14.433594c0-2.207032 1.789063-4 3.992187-4h.007813c2.207031 0 4 1.792968 4 4l.015625 13.226562 19.992188 30 20.007812-30-.007812-13.167968c0-2.210938 1.792968-4 4-4 2.207031 0 4 1.789062 4 4l.007812 14.382812c0 .792969-.234375 1.566406-.671875 2.222656l-24.007813 36c-.746093 1.105469-1.992187 1.769532-3.328124 1.769532zm0 0" data-original="#000000"/><path d="m84 283.960938c-2.207031 0-4-1.792969-4-4v-32c0-2.207032 1.792969-4 4-4s4 1.792968 4 4v32c0 2.207031-1.792969 4-4 4zm0 0" data-original="#000000"/><path d="m132.039062 340c-2.207031 0-4-1.792969-4-4l.015626-74.648438c0-1.617187.976562-3.078124 2.472656-3.695312s3.214844-.273438 4.359375.863281l46.519531 46.519531c4.53125 4.527344 12.441406 4.527344 16.96875 0l42.433594-42.421874-16.96875-16.96875-31.121094 31.113281c-1.558594 1.558593-4.09375 1.558593-5.65625 0l-31.070312-31.074219c-5.359376-5.359375-11.496094-9.886719-18.207032-13.441406l-31.679687-16.757813c-1.953125-1.03125-2.707031-3.457031-1.671875-5.410156 1.039062-1.949219 3.46875-2.695313 5.40625-1.664063l31.6875 16.761719c7.433594 3.929688 14.191406 8.929688 20.128906 14.855469l28.238281 28.242188 31.121094-31.113282c1.558594-1.558594 4.097656-1.558594 5.65625 0l22.625 22.625c.75.75 1.167969 1.765625 1.167969 2.832032 0 1.0625-.425782 2.078124-1.167969 2.832031l-45.257813 45.246093c-7.558593 7.550782-20.71875 7.550782-28.277343 0l-39.699219-39.695312-.023438 65c0 2.207031-1.792968 4-4 4zm0 0" data-original="#000000"/><path d="m451.992188 304h-220.28125c-2.207032 0-4-1.792969-4-4s1.792968-4 4-4h220.28125c2.199218 0 4-1.792969 4-4v-176c0-2.207031-1.800782-4-4-4h-224c-2.199219 0-4 1.792969-4 4v108.527344c0 2.207031-1.792969 4-4 4-2.207032 0-4-1.792969-4-4v-108.527344c0-6.617188 5.382812-12 12-12h224c6.617187 0 12 5.382812 12 12v176c0 6.617188-5.382813 12-12 12zm0 0" data-original="#000000"/><path d="m257.777344 255.3125c-1.023438 0-2.050782-.390625-2.832032-1.167969-1.5625-1.558593-1.5625-4.097656 0-5.65625 4.679688-4.679687 4.679688-12.296875 0-16.976562-4.53125-4.527344-12.441406-4.527344-16.96875 0l-5.664062-5.65625c7.792969-7.800781 20.488281-7.808594 28.289062 0 7.796876 7.800781 7.796876 20.488281 0 28.289062-.777343.777344-1.800781 1.167969-2.824218 1.167969zm0 0" data-original="#000000"/><path d="m444 31.464844h-32c-2.207031 0-4-1.792969-4-4 0-2.207032 1.792969-4 4-4h32c2.207031 0 4 1.792968 4 4 0 2.207031-1.792969 4-4 4zm0 0" data-original="#000000"/><path d="m428 47.464844c-2.207031 0-4-1.792969-4-4v-32c0-2.207032 1.792969-4 4-4s4 1.792968 4 4v32c0 2.207031-1.792969 4-4 4zm0 0" data-original="#000000"/><path d="m484 75.464844h-32c-2.207031 0-4-1.792969-4-4 0-2.207032 1.792969-4 4-4h32c2.207031 0 4 1.792968 4 4 0 2.207031-1.792969 4-4 4zm0 0" data-original="#000000"/><path d="m468 91.464844c-2.207031 0-4-1.792969-4-4v-32c0-2.207032 1.792969-4 4-4s4 1.792968 4 4v32c0 2.207031-1.792969 4-4 4zm0 0" data-original="#000000"/><path d="m415.992188 327.71875h-80c-2.207032 0-4-1.789062-4-4 0-2.207031 1.792968-4 4-4h80c2.207031 0 4 1.792969 4 4 0 2.210938-1.792969 4-4 4zm0 0" data-original="#000000"/><path d="m439.992188 327.71875h-8c-2.207032 0-4-1.789062-4-4 0-2.207031 1.792968-4 4-4h8c2.207031 0 4 1.792969 4 4 0 2.210938-1.792969 4-4 4zm0 0" data-original="#000000"/><path d="m219.992188 40h-80c-2.207032 0-4-1.792969-4-4s1.792968-4 4-4h80c2.207031 0 4 1.792969 4 4s-1.792969 4-4 4zm0 0" data-original="#000000"/><path d="m219.992188 64h-80c-2.207032 0-4-1.792969-4-4s1.792968-4 4-4h80c2.207031 0 4 1.792969 4 4s-1.792969 4-4 4zm0 0" data-original="#000000"/></g><path d="m323.992188 168h32v40h-32zm0 0" fill="#4db6ac" data-original="#4DB6AC"/><path d="m355.992188 212h-32c-2.207032 0-4-1.792969-4-4v-40c0-2.207031 1.792968-4 4-4h32c2.207031 0 4 1.792969 4 4v40c0 2.207031-1.792969 4-4 4zm-28-8h24v-32h-24zm0 0" fill="#263238" data-original="#263238"/><path d="m371.992188 136h32v72h-32zm0 0" fill="#ff5252" data-original="#FF5252" class="" style="fill:#FF5252"/><path d="m403.992188 212h-32c-2.207032 0-4-1.792969-4-4v-72c0-2.207031 1.792968-4 4-4h32c2.207031 0 4 1.792969 4 4v72c0 2.207031-1.792969 4-4 4zm-28-8h24v-64h-24zm0 0" fill="#263238" data-original="#263238"/><path d="m299.992188 164h-48c-2.207032 0-4-1.792969-4-4v-24c0-2.207031 1.792968-4 4-4h48c2.207031 0 4 1.792969 4 4v24c0 2.207031-1.792969 4-4 4zm-44-8h40v-16h-40zm0 0" fill="#263238" data-original="#263238"/></g> </svg>
