<?xml version="1.0"?>
<svg xmlns="http://www.w3.org/2000/svg" height="512px" viewBox="-5 0 504 504.1379" width="512px" class=""><g><path d="m395.503906 351.550781h-.441406v5.71875c.070312 7.277344-5.695312 13.269531-12.96875 13.480469h-.140625c-7.25.003906-13.128906-5.871094-13.128906-13.121094v-73.097656c-.078125-.832031-.121094-1.660156-.121094-2.492188 0-13.648437 11.0625-24.710937 24.710937-24.707031h13.289063l21.0625 20.5 21.839844-20.5h12.527343c.832032-.003906 1.664063.039063 2.492188.128907 13.574219 1.378906 23.460938 13.496093 22.089844 27.070312v73.089844c0 7.25-5.878906 13.128906-13.128906 13.128906-7.253907 0-13.132813-5.878906-13.132813-13.128906v-16.242188l-.300781 10.171875zm0 0" fill="#00acea" data-original="#00ACEA" class="active-path" style="fill:#1190CB" data-old_color="#00ACEA"/><path d="m427.835938 481.898438c-.015626 7.746093-6.222657 14.058593-13.964844 14.195312-7.746094.140625-14.175782-5.945312-14.46875-13.683594l-3.898438-130.859375h64.648438l-3.886719 130.859375c-.292969 7.738282-6.722656 13.824219-14.464844 13.683594-7.746093-.136719-13.953125-6.449219-13.964843-14.195312zm0 0" fill="#fedb41" data-original="#FEDB41" class=""/><path d="m450.714844 213.621094v9.519531c0 13.132813-10.648438 23.78125-23.78125 23.78125-13.132813 0-23.78125-10.648437-23.78125-23.78125v-9.519531c0-13.132813 10.648437-23.78125 23.78125-23.78125 13.132812 0 23.78125 10.648437 23.78125 23.78125zm0 0" fill="#fedb41" data-original="#FEDB41" class=""/><path d="m340.375 382.53125v27.25l-20.011719 1.957031c-1.980469 8.835938-5.535156 17.242188-10.488281 24.820313l12.917969 15.582031-19.269531 19.230469-15.578126-12.921875c-7.566406 5-15.996093 8.546875-24.859374 10.449219l-1.960938 20.203124h-27.289062l-1.953126-20.203124c-8.851562-1.949219-17.277343-5.488282-24.867187-10.449219l-15.582031 12.921875-19.257813-19.230469 12.917969-15.582031c-5.011719-7.546875-8.574219-15.964844-10.5-24.820313l-20.238281-1.957031v-27.25l20.238281-1.960938c1.984375-8.835937 5.539062-17.242187 10.5-24.820312l-12.917969-15.578125 19.257813-19.230469 15.582031 12.917969c7.566406-5 16-8.542969 24.867187-10.449219l1.953126-20.199218h27.289062l1.960938 20.199218c8.847656 1.949219 17.273437 5.492188 24.859374 10.449219l15.578126-12.917969 19.03125 19.230469-12.921876 15.578125c5.015626 7.546875 8.578126 15.964844 10.5 24.820312zm-52.0625 13.617188c.03125-22.613282-18.28125-40.96875-40.898438-40.988282-22.617187-.019531-40.960937 18.304688-40.96875 40.921875-.007812 22.613281 18.324219 40.949219 40.9375 40.949219 22.59375.015625 40.921876-18.289062 40.929688-40.882812zm0 0" fill="#00efd1" data-original="#00EFD1" class=""/><path d="m325.035156 160.929688 2.757813 32.730468-40.320313-21.460937v-75.699219l8.8125 7.679688c16.589844 14.464843 26.898438 34.816406 28.75 56.75zm0 0" fill="#00acea" data-original="#00ACEA" class="active-path" style="fill:#1190CB" data-old_color="#00ACEA"/><path d="m207.253906 172.199219v-28.4375h80.21875v53.527343h-80.21875zm0 0" fill="#00acea" data-original="#00ACEA" class="active-path" style="fill:#1190CB" data-old_color="#00ACEA"/><path d="m287.472656 96.5v47.261719h-80.21875v-65.941407c-.003906-11.933593 3.980469-23.523437 11.320313-32.929687l28.789062-36.890625 28.789063 36.890625c7.339844 9.40625 11.324218 20.996094 11.320312 32.929687zm-40.109375 4.832031c9.019531 0 16.332031-7.3125 16.332031-16.332031s-7.3125-16.328125-16.332031-16.328125-16.328125 7.308594-16.328125 16.328125c.105469 8.976562 7.355469 16.226562 16.328125 16.332031zm0 0" fill="#00efd1" data-original="#00EFD1" class=""/><path d="m277.804688 197.691406v28.167969h-60.878907v-28.570313h60.878907zm0 0" fill="#00efd1" data-original="#00EFD1" class=""/><path d="m263.695312 85c0 9.019531-7.3125 16.332031-16.332031 16.332031s-16.328125-7.3125-16.328125-16.332031 7.308594-16.328125 16.328125-16.328125c8.976563.101563 16.226563 7.351563 16.332031 16.328125zm0 0" fill="#fedb41" data-original="#FEDB41" class=""/><path d="m207.253906 143.761719v28.4375l-40.320312 21.460937 2.761718-32.730468c1.847657-21.933594 12.160157-42.285157 28.75-56.75l8.808594-7.679688zm0 0" fill="#00acea" data-original="#00ACEA" class="active-path" style="fill:#1190CB" data-old_color="#00ACEA"/><path d="m34.695312 351.390625h-.441406v5.710937c.070313 7.277344-5.695312 13.273438-12.96875 13.488282h-.152344c-7.246093 0-13.117187-5.875-13.117187-13.121094v-73.097656c-.082031-.832032-.121094-1.660156-.121094-2.492188-.003906-13.648437 11.0625-24.710937 24.710938-24.707031h13.277343l21.070313 20.488281v.011719l21.839844-20.5h12.53125c.832031-.003906 1.664062.039063 2.488281.128906 13.578125 1.375 23.464844 13.496094 22.089844 27.070313v73.089844c0 7.253906-5.878906 13.132812-13.132813 13.132812-7.253906 0-13.136719-5.878906-13.136719-13.132812v-15.910157l-.289062 9.839844zm0 0" fill="#00acea" data-original="#00ACEA" class="active-path" style="fill:#1190CB" data-old_color="#00ACEA"/><path d="m67.023438 481.738281c-.011719 7.75-6.222657 14.0625-13.96875 14.203125-7.746094.136719-14.179688-5.949218-14.46875-13.691406l-3.890626-130.859375h64.648438l-3.890625 130.859375c-.289063 7.738281-6.71875 13.824219-14.464844 13.683594-7.742187-.136719-13.953125-6.449219-13.964843-14.195313zm0 0" fill="#fedb41" data-original="#FEDB41" class=""/><path d="m89.902344 213.460938v9.519531c0 13.132812-10.644532 23.78125-23.777344 23.78125s-23.78125-10.648438-23.78125-23.78125v-9.519531c0-13.132813 10.648438-23.78125 23.78125-23.78125s23.777344 10.648437 23.777344 23.78125zm0 0" fill="#fedb41" data-original="#FEDB41" class=""/><g fill="#083863"><path d="m.363281 357.46875c0 11.648438 9.125 21.589844 20.769531 21.589844h.25c2.082032-.089844 4.136719-.507813 6.089844-1.238282l3.117188 104.839844c.332031 8.460938 5.445312 15.992188 13.183594 19.425782 7.738281 3.429687 16.753906 2.164062 23.246093-3.269532 6.519531 5.433594 15.566407 6.679688 23.3125 3.207032 7.746094-3.46875 12.835938-11.050782 13.117188-19.53125l3.113281-104.832032c2.09375.621094 4.261719.933594 6.441406.933594 11.710938.003906 21.238282-9.421875 21.359375-21.132812v-72.714844c1-17.777344-11.722656-33.664063-29.453125-35.453125-1.191406-.136719-2.386718-.214844-3.585937-.234375h-12.53125c-2.039063.023437-3.996094.816406-5.472657 2.222656l-16.261718 15.292969-15.59375-15.152344c-.28125-.265625-.578125-.507813-.890625-.730469 4.828125 2.675782 10.257812 4.078125 15.78125 4.070313 17.589843 0 31.882812-14.191407 32.007812-31.78125v-9.519531c0-17.675782-14.324219-32-32-32-17.671875 0-32 14.324218-32 32v9.519531c-.042969 10.96875 5.625 21.167969 14.964844 26.921875-1.070313-.535156-2.25-.820313-3.445313-.84375h-13.277343c-18.035157.0625-32.60156275 14.734375-32.5351565 32.765625 0 .945312.2929685 1.957031.2929685 2.902343zm50-144.007812c0-8.835938 7.164063-16 16-16 8.835938 0 16 7.164062 16 16v9.519531c-.089843 6.417969-4.007812 12.160156-9.953125 14.589843-5.941406 2.429688-12.757812 1.074219-17.320312-3.445312-3-2.9375-4.699219-6.949219-4.726563-11.144531zm30.882813 274.5c-1.605469 0-3.136719-.660157-4.234375-1.828126-1.121094-1.179687-1.714844-2.765624-1.648438-4.394531v-107.4375c0-4.417969-3.582031-8-8-8s-8 3.582031-8 8v107.4375c-.074219 2.523438-1.621093 4.769531-3.953125 5.734375-2.328125.964844-5.011718.472656-6.847656-1.257812-1.167969-1.164063-1.859375-2.722656-1.9375-4.367188l-3.6875-122.789062h48.164062l-3.636718 122.734375c-.09375 3.386719-2.832032 6.101562-6.21875 6.167969zm-48.640625-222.902344h10.03125l18.742187 18.28125c.015625.015625.035156.058594.050782.074218.171874.164063.351562.335938.535156.484376.019531.015624.042968.039062.0625.058593.195312.152344.394531.300781.597656.425781.015625.011719.03125.023438.050781.035157.207031.132812.421875.253906.636719.367187l.042969.019532c.222656.113281.445312.214843.675781.300781l.035156.011719c.234375.09375.464844.171874.707032.238281l.023437.007812c.242187.066407.484375.121094.730469.167969h.015625c.25.042969.503906.078125.753906.097656 1.027344.085938 2.058594-.027344 3.039063-.332031.242187-.078125.476562-.164063.714843-.261719l.027344-.011718c.226563-.101563.445313-.199219.664063-.320313l.054687-.03125c.207031-.113281.410156-.238281.609375-.371094l.078125-.054687c.191406-.132813.375-.273438.558594-.421875l.089843-.074219c.097657-.085938.199219-.214844.292969-.300781l19.539063-18.390625h9.363281c.5625.019531 1.128906.066406 1.6875.148437 9.21875.929688 15.976563 9.101563 15.160156 18.332031-.027343.265626.1875.5625.1875.832032v73.089844c-.199219 2.890624-2.601562 5.132812-5.5 5.132812-2.898437 0-5.300781-2.242188-5.5-5.132812v-15.789063l.078125-2.574219c.011719-.445312-.078125-.878906-.078125-1.304687v-29.253907c0-4.417968-3.582031-8-8-8s-8 3.582032-8 8v32.894532l.210938 1.625h-49.109375l-.085938-4.597656c-.015625-.28125-.015625-.390626-.015625-.660157v-29.261719c0-4.417968-3.582031-8-8-8s-8 3.582032-8 8v48.5625c0 2.941407-2.429687 4.957032-5.078125 5.957032h-.152344c-2.820312 0-4.769531-2.765625-4.769531-5.589844v-73.097656c0-.257813-.1875-.511719-.210937-.765625-.054688-.574219-.171875-1.210938-.171875-1.78125-.035157-9.21875 7.40625-16.722657 16.625-16.765625zm0 0" data-original="#000000" class="" style="fill:#000000"/><path d="m360.363281 357.628906c.207031 11.8125 9.777344 21.3125 21.589844 21.429688h.230469c2.078125-.0625 4.136718-.453125 6.097656-1.152344l3.125 104.875c.320312 8.460938 5.429688 16.003906 13.167969 19.441406 7.738281 3.441406 16.761719 2.179688 23.257812-3.253906 6.515625 5.441406 15.566407 6.691406 23.3125 3.21875 7.75-3.46875 12.839844-11.050781 13.121094-19.539062l3.113281-104.820313c1.953125.617187 3.988282.933594 6.035156.933594 5.582032-.015625 10.933594-2.253907 14.863282-6.222657 3.929687-3.964843 6.121094-9.335937 6.085937-14.917968v-72.714844c2-17.773438-11.316406-33.742188-29.054687-35.535156-1.050782-.164063-2.109375-.269532-3.175782-.3125h-12.527343c-2.050781.050781-4.007813.871094-5.476563 2.300781l-16.265625 15.335937-15.578125-15.136718c-.269531-.25-.558594-.484375-.859375-.699219 4.671875 2.660156 9.957031 4.050781 15.332031 4.042969 8.40625-.011719 16.460938-3.367188 22.390626-9.328125 5.929687-5.957031 9.242187-14.027344 9.214843-22.433594v-9.519531c0-17.398438-14.101562-31.5-31.5-31.5-17.394531 0-31.5 14.101562-31.5 31.5v9.519531c-.0625 8.417969 3.25 16.507813 9.199219 22.460937 1.691406 1.664063 3.566406 3.128907 5.59375 4.363282-1.074219-.546875-2.25-.851563-3.453125-.902344h-13.289063c-18.128906.066406-32.820312 14.71875-32.941406 32.847656 0 .945313-.109375 2.035156-.109375 2.984375zm51-144.007812c0-8.5625 6.941407-15.5 15.5-15.5 8.5625 0 15.5 6.9375 15.5 15.5v9.519531c.035157 4.164063-1.589843 8.171875-4.519531 11.132813-2.925781 2.960937-6.914062 4.632812-11.078125 4.648437-4.136719.007813-8.09375-1.664063-10.96875-4.632813-2.917969-2.96875-4.515625-6.988281-4.433594-11.148437zm30.691407 274.5c-1.726563.003906-3.386719-.652344-4.640626-1.839844-1.230468-1.132812-1.96875-2.707031-2.050781-4.382812v-107.4375c0-4.417969-3.582031-8-8-8s-8 3.582031-8 8v107.4375c.050781 1.625-.554687 3.203124-1.679687 4.371093-1.128906 1.171875-2.679688 1.839844-4.304688 1.851563-1.578125 0-3.09375-.628906-4.207031-1.75-1.140625-1.203125-1.792969-2.785156-1.828125-4.445313l-3.59375-122.867187h48.160156l-3.640625 122.824218c-.089843 3.398438-2.816406 6.136719-6.214843 6.238282zm-48.640626-223.0625h10.039063l18.730469 18.367187c.054687.054688.109375.164063.164062.214844.109375.097656.214844.226563.324219.320313.113281.089843.195313.171874.296875.246093.097656.074219.226562.179688.347656.257813.117188.078125.207032.140625.316406.199218.105469.058594.234376.140626.355469.207032.121094.066406.226563.117187.339844.171875.113281.054687.242187.113281.363281.164062.121094.046875.238282.097657.359375.136719.125.042969.246094.085938.367188.125.121093.039062.25.070312.375.097656.125.03125.246093.0625.371093.085938.125.027344.253907.046875.382813.070312.128906.019532.25.035156.378906.046875.125.011719.253907.023438.382813.03125.125.007813.257812.011719.386718.011719.128907.003906.25 0 .375-.003906.125-.007813.261719-.011719.394532-.023438.128906-.011718.242187-.027344.367187-.042968.121094-.015626.261719-.039063.398438-.0625.136719-.023438.242187-.046876.359375-.074219.121094-.03125.261718-.066407.390625-.101563.128906-.035156.238281-.070312.355469-.113281.117187-.039063.25-.085937.375-.132813.125-.050781.238281-.101562.355468-.152343.117188-.050781.234375-.109375.351563-.171875.117187-.058594.234375-.125.351562-.191406.117188-.066407.222657-.128907.328125-.199219.109375-.070313.230469-.15625.34375-.238281.113282-.078126.207032-.152344.308594-.230469.101562-.082031.214844-.179688.320312-.273438.058594-.050781.117188-.230469.171876-.28125l19.527343-18.460937h9.363281c.566407.046875 1.128907.121094 1.6875.226562 4.394532.476563 8.417969 2.679688 11.1875 6.128906 2.769532 3.445313 4.054688 7.851563 3.574219 12.246094-.03125.265625-.21875.597656-.21875.871094v73.089844c0 2.761718-2.238281 5-5 5s-5-2.238282-5-5v-16.128906l.066407-2.234376c.011718-.417968-.066407-.824218-.066407-1.222656v-29.335937c0-4.417969-3.582031-8-8-8s-8 3.582031-8 8v32.550781l.023438 1.808594h-49.113281l.007812-4.519532c-.007812-.277343.082031-.308593.082031-.578124v-29.261719c0-4.417969-3.582031-8-8-8s-8 3.582031-8 8v48.570312c0 2.941407-2.613281 5.789063-5.269531 5.789063h-.140625c-2.980469-.109375-5.394531-2.453125-5.589844-5.429688v-73.097656c0-.257812.21875-.511719.195313-.769531-.054688-.570313.03125-1.285157.03125-1.855469.054687-9.273438 7.550781-16.78125 16.824218-16.847656zm0 0" data-original="#000000" class="" style="fill:#000000"/><path d="m153.589844 417.742188 14.652344 1.421874c1.714843 5.808594 4.078124 11.410157 7.046874 16.691407l-9.273437 11.179687c-2.636719 3.179688-2.417969 7.847656.507813 10.765625l19.257812 19.230469c2.921875 2.917969 7.582031 3.132812 10.761719.5l11.226562-9.3125c5.292969 2.949219 10.890625 5.3125 16.695313 7.042969l1.410156 14.585937c.394531 4.097656 3.84375 7.21875 7.960938 7.210938h27.289062c4.113281.011718 7.5625-3.109375 7.960938-7.207032l1.417968-14.589843c5.820313-1.703125 11.429688-4.054688 16.722656-7.015625l11.191407 9.28125c3.175781 2.632812 7.835937 2.417968 10.757812-.5l19.269531-19.226563c2.925782-2.921875 3.144532-7.589843.507813-10.769531l-9.300781-11.214844c2.945312-5.28125 5.304687-10.867187 7.039062-16.660156l14.457032-1.417969c4.09375-.402343 7.214843-3.84375 7.214843-7.957031v-27.25c0-4.117188-3.125-7.566406-7.222656-7.964844l-14.65625-1.417968c-1.707031-5.8125-4.070313-11.414063-7.042969-16.691407l9.269532-11.179687c2.628906-3.167969 2.421874-7.8125-.472657-10.734375l-19.027343-19.230469c-2.917969-2.945312-7.601563-3.175781-10.792969-.53125l-11.226563 9.3125c-5.289062-2.953125-10.886718-5.3125-16.6875-7.042969l-1.417968-14.691406c-.390626-4.113281-3.828126-7.265625-7.960938-7.300781h-10c2.664062-1.25 4.328125-3.964844 4.238281-6.910156v-39.96875c0-4.417969-3.582031-8-8-8s-8 3.582031-8 8v39.96875c-.089843 2.945312 1.578125 5.660156 4.242188 6.910156h-9.769531c-4.136719.035156-7.574219 3.191406-7.964844 7.308594l-1.410156 14.636718c-5.824219 1.707032-11.4375 4.070313-16.730469 7.039063l-11.1875-9.269531c-3.179688-2.636719-7.839844-2.417969-10.761719.5l-19.257812 19.230468c-2.925782 2.921875-3.144532 7.585938-.507813 10.769532l9.300781 11.210937c-2.949218 5.277344-5.3125 10.867187-7.046875 16.660156l-14.675781 1.421875c-4.101562.394532-7.230469 3.84375-7.230469 7.964844v27.25c0 4.117188 3.125 7.5625 7.226563 7.960938zm8.773437-27.949219 13.007813-1.261719c3.445312-.332031 6.285156-2.84375 7.035156-6.222656 1.769531-7.902344 4.953125-15.421875 9.394531-22.191406 1.910157-2.9375 1.691407-6.777344-.546875-9.472657l-8.265625-9.964843 8.945313-8.933594 9.972656 8.273437c2.714844 2.25 6.578125 2.457031 9.519531.515625 6.734375-4.457031 14.242188-7.613281 22.140625-9.300781 3.414063-.765625 5.949219-3.640625 6.28125-7.128906l1.25-13.046875h12.765625l1.257813 13.050781c.335937 3.476563 2.878906 6.34375 6.296875 7.085937 7.90625 1.757813 15.429687 4.9375 22.203125 9.375 2.929687 1.886719 6.746094 1.660157 9.429687-.5625l9.941407-8.238281 8.777343 8.871094-8.292969 10c-2.253906 2.722656-2.457031 6.597656-.5 9.539063 4.46875 6.714843 7.636719 14.210937 9.34375 22.09375.738282 3.394531 3.582032 5.925781 7.039063 6.257812l13.003906 1.261719v12.730469l-12.785156 1.253906c-3.441406.339844-6.273437 2.851562-7.027344 6.226562-1.769531 7.902344-4.949219 15.417969-9.382812 22.195313-1.910157 2.933593-1.6875 6.769531.546875 9.46875l8.261718 9.964843-8.949218 8.929688-9.976563-8.269531c-2.710937-2.25-6.578125-2.460938-9.519531-.515625-6.730469 4.453125-14.234375 7.609375-22.128906 9.296875-3.402344.726562-5.945313 3.570312-6.28125 7.03125l-1.257813 12.953125h-12.765625l-1.25-12.949219c-.335937-3.46875-2.886718-6.324219-6.300781-7.042969-7.910156-1.753906-15.4375-4.921875-22.214844-9.355468-2.933593-1.878907-6.746093-1.644532-9.429687.578124l-9.972656 8.273438-8.945313-8.929688 8.265625-9.964843c2.25-2.722657 2.453125-6.59375.5-9.535157-4.46875-6.71875-7.640625-14.214843-9.347656-22.101562-.738282-3.390625-3.585938-5.921875-7.042969-6.257812l-12.996094-1.253907zm0 0" data-original="#000000" class="" style="fill:#000000"/><path d="m247.382812 445.03125c26.984376-.035156 48.835938-21.933594 48.8125-48.917969-.023437-26.984375-21.910156-48.84375-48.894531-48.832031-26.984375.007812-48.855469 21.886719-48.855469 48.867188.042969 27.003906 21.9375 48.871093 48.9375 48.882812zm0-81.75c18.148438.035156 32.835938 14.769531 32.8125 32.917969-.027343 18.148437-14.753906 32.84375-32.902343 32.832031-18.148438-.015625-32.851563-14.734375-32.847657-32.882812.035157-18.164063 14.773438-32.871094 32.9375-32.867188zm0 0" data-original="#000000" class="" style="fill:#000000"/><path d="m247.363281 109.332031h.179688c13.316406-.050781 24.078125-10.875 24.054687-24.191406-.023437-13.320313-10.828125-24.101563-24.144531-24.101563-13.320313 0-24.121094 10.78125-24.144531 24.101563-.027344 13.316406 10.738281 24.140625 24.054687 24.191406zm0-32.660156c4.601563 0 8.332031 3.726563 8.332031 8.328125s-3.730468 8.332031-8.332031 8.332031c-4.601562 0-8.328125-3.730469-8.328125-8.332031.113282-4.550781 3.777344-8.214844 8.328125-8.328125zm0 0" data-original="#000000" class="" style="fill:#000000"/><path d="m295.363281 197.289062v-11.769531l28.617188 15.203125c2.597656 1.375 5.738281 1.226563 8.199219-.382812 2.449218-1.613282 3.820312-4.433594 3.574218-7.351563l-2.753906-32.730469c-1.996094-24.023437-13.304688-46.3125-31.515625-62.109374l-6.121094-5.289063v-15.039063c.003907-13.707031-4.554687-27.023437-12.957031-37.851562l-28.761719-36.890625c-1.511719-1.941406-3.835937-3.078125-6.296875-3.078125-2.460937 0-4.785156 1.136719-6.296875 3.078125l-28.730469 36.890625c-8.402343 10.828125-12.960937 24.144531-12.957031 37.851562v15.039063l-6.121093 5.289063c-18.207032 15.796874-29.507813 38.089843-31.492188 62.113281l-2.773438 32.726562c-.191406 2.230469.5625 4.4375 2.074219 6.085938 1.515625 1.648437 3.648438 2.589843 5.886719 2.589843 1.328125 0 2.636719-.324218 3.8125-.941406l28.613281-15.203125v11.769531c-.015625 2.085938.816407 4.089844 2.300781 5.554688 1.488282 1.464844 3.503907 2.265625 5.589844 2.214844h2.109375v20.800781c0 4.417969 3.144531 8.199219 7.5625 8.199219h60.878907c4.417968 0 7.558593-3.78125 7.558593-8.199219v-20.800781h2.109375c2.085938.050781 4.105469-.75 5.589844-2.214844 1.488281-1.464844 2.316406-3.46875 2.300781-5.554688zm-80-8.230468v-37h64v37zm101.644531-27.457032 1.5 18.101563-23.144531-12.308594v-52.960937c13 12.71875 20.132813 29.242187 21.644531 47.167968zm-92.070312-111.789062 22.453125-28.808594 22.417969 28.808594c6.207031 8.015625 9.570312 17.871094 9.554687 28.007812v58.238282h-64v-58.238282c-.007812-10.140624 3.359375-19.996093 9.574219-28.007812zm-48.742188 129.886719 1.554688-18.101563c1.515625-17.921875 8.613281-34.445312 21.613281-47.164062v52.960937zm93.167969 38.359375h-44v-13h44zm0 0" data-original="#000000" class="" style="fill:#000000"/><path d="m270.589844 240.605469c-4.183594 1.421875-6.421875 5.964843-5 10.148437l8.71875 25.660156c.894531 2.738282 3.195312 4.785157 6.015625 5.355469 2.824219.574219 5.738281-.417969 7.628906-2.589843 1.890625-2.175782 2.464844-5.195313 1.503906-7.914063l-8.71875-25.660156c-1.421875-4.183594-5.964843-6.421875-10.148437-5zm0 0" data-original="#000000" class="" style="fill:#000000"/><path d="m213.988281 245.605469-8.71875 25.660156c-.957031 2.71875-.382812 5.738281 1.507813 7.914063 1.890625 2.171874 4.800781 3.164062 7.625 2.589843 2.824218-.570312 5.121094-2.617187 6.015625-5.355469l8.71875-25.660156c.9375-2.710937.351562-5.714844-1.535157-7.875-1.886718-2.15625-4.785156-3.140625-7.597656-2.578125-2.808594.5625-5.105468 2.585938-6.015625 5.304688zm0 0" data-original="#000000" class="" style="fill:#000000"/></g></g> </svg>
